<svg width="21" height="21" viewBox="0 0 21 21" fill="none" xmlns="http://www.w3.org/2000/svg">
<circle cx="10.5" cy="10.5" r="10.5" fill="black"/>
<path d="M13.3054 8.72747C13.259 8.76348 12.4397 9.22512 12.4397 10.2516C12.4397 11.4389 13.4822 11.859 13.5135 11.8694C13.5087 11.895 13.3478 12.4446 12.9638 13.0047C12.6214 13.4975 12.2637 13.9896 11.7197 13.9896C11.1756 13.9896 11.0356 13.6736 10.4075 13.6736C9.79548 13.6736 9.57786 14 9.08021 14C8.58256 14 8.23532 13.544 7.83608 12.9839C7.37364 12.3262 7 11.3045 7 10.3348C7 8.77948 8.0113 7.9546 9.0066 7.9546C9.53545 7.9546 9.9763 8.30183 10.3083 8.30183C10.6244 8.30183 11.1172 7.93379 11.7189 7.93379C11.9469 7.93379 12.7662 7.9546 13.3054 8.72747ZM11.4332 7.27533C11.6821 6.9801 11.8581 6.57046 11.8581 6.16082C11.8581 6.10401 11.8533 6.0464 11.8429 6C11.438 6.0152 10.9564 6.26963 10.666 6.60646C10.4379 6.86569 10.2251 7.27533 10.2251 7.69057C10.2251 7.75298 10.2355 7.81538 10.2403 7.83538C10.2659 7.84018 10.3075 7.84578 10.3491 7.84578C10.7124 7.84578 11.1692 7.60256 11.4332 7.27533Z" fill="white"/>
</svg>
