<svg width="21" height="21" viewBox="0 0 21 21" fill="none" xmlns="http://www.w3.org/2000/svg">
<circle cx="10.5" cy="10.5" r="10" fill="white" stroke="#EEEEEE"/>
<path d="M14.84 11.0909C14.84 10.8073 14.8145 10.5345 14.7673 10.2727H11V11.8218H13.1527C13.0582 12.32 12.7745 12.7418 12.3491 13.0254V14.0327H13.6473C14.4036 13.3345 14.84 12.3091 14.84 11.0909Z" fill="#4285F4"/>
<path d="M11.0001 15C12.0801 15 12.9856 14.6437 13.6474 14.0328L12.3492 13.0255C11.9928 13.2655 11.5383 13.4109 11.0001 13.4109C9.96011 13.4109 9.07647 12.7091 8.76011 11.7637H7.4292V12.7964C8.08738 14.1019 9.43647 15 11.0001 15Z" fill="#34A853"/>
<path d="M8.76 11.76C8.68 11.52 8.63273 11.2655 8.63273 11C8.63273 10.7345 8.68 10.48 8.76 10.24V9.20728H7.42909C7.15636 9.74546 7 10.3527 7 11C7 11.6473 7.15636 12.2545 7.42909 12.7927L8.46545 11.9855L8.76 11.76Z" fill="#FBBC05"/>
<path d="M11.0001 8.59273C11.5892 8.59273 12.1128 8.79636 12.531 9.18909L13.6765 8.04364C12.9819 7.39636 12.0801 7 11.0001 7C9.43647 7 8.08738 7.89818 7.4292 9.20727L8.76011 10.24C9.07647 9.29455 9.96011 8.59273 11.0001 8.59273Z" fill="#EA4335"/>
</svg>
