<svg width="13" height="13" viewBox="0 0 13 13" fill="none" xmlns="http://www.w3.org/2000/svg">
<path fill-rule="evenodd" clip-rule="evenodd" d="M6.5 5.51479L11.8105 0.203357C11.9461 0.0677856 12.1253 0 12.3036 0C12.6787 0 13 0.300857 13 0.6955C13 0.874714 12.9322 1.053 12.7966 1.1895L7.48521 6.5L12.7957 11.8105C12.9322 11.947 13 12.1253 13 12.3036C13 12.7001 12.6759 13 12.3036 13C12.1253 13 11.9461 12.9322 11.8105 12.7966L6.5 7.48614L1.1895 12.7966C1.05393 12.9322 0.874714 13 0.696429 13C0.324071 13 0 12.7001 0 12.3036C0 12.1253 0.0677855 11.947 0.204286 11.8105L5.51479 6.5L0.203357 1.1895C0.0677856 1.053 0 0.874714 0 0.6955C0 0.300857 0.321286 0 0.696429 0C0.874714 0 1.05393 0.0677856 1.1895 0.203357L6.5 5.51479Z" fill="white"/>
</svg>
