<svg width="16" height="16" viewBox="0 0 16 16" fill="none" xmlns="http://www.w3.org/2000/svg">
<path fill-rule="evenodd" clip-rule="evenodd" d="M8 6.78743L14.536 0.250286C14.7029 0.0834284 14.9234 0 15.1429 0C15.6046 0 16 0.370285 16 0.856C16 1.07657 15.9166 1.296 15.7497 1.464L9.21257 8L15.7486 14.536C15.9166 14.704 16 14.9234 16 15.1429C16 15.6309 15.6011 16 15.1429 16C14.9234 16 14.7029 15.9166 14.536 15.7497L8 9.21371L1.464 15.7497C1.29714 15.9166 1.07657 16 0.857143 16C0.398857 16 0 15.6309 0 15.1429C0 14.9234 0.0834283 14.704 0.251428 14.536L6.78743 8L0.250286 1.464C0.0834284 1.296 0 1.07657 0 0.856C0 0.370285 0.395429 0 0.857143 0C1.07657 0 1.29714 0.0834284 1.464 0.250286L8 6.78743Z" fill="black"/>
</svg>
