<svg width="50" height="50" viewBox="0 0 50 50" fill="none" xmlns="http://www.w3.org/2000/svg">
<path d="M25.0013 0C38.7972 0 50 11.2028 50 24.9988C50 38.7972 38.7972 50 25.0013 50C11.2028 50 0 38.7972 0 24.9988C0 11.2028 11.2028 0 25.0013 0ZM12.3756 25.9715L22.0055 34.5486C22.3606 34.8687 22.8082 35.0238 23.2533 35.0238C23.7584 35.0238 24.2661 34.8212 24.6337 34.4186L39.5199 18.142C39.8475 17.7844 40.01 17.3343 40.01 16.8867C40.01 15.8615 39.1823 15.0188 38.1395 15.0188C37.6294 15.0188 37.1268 15.2238 36.7542 15.6264L23.1183 30.5351L14.8712 23.1883C14.5111 22.8707 14.0685 22.7132 13.6234 22.7132C12.5856 22.7132 11.7529 23.5509 11.7529 24.5786C11.7529 25.0913 11.963 25.6014 12.3756 25.9715Z" fill="#111111"/>
</svg>
