<svg width="34" height="34" viewBox="0 0 34 34" fill="none" xmlns="http://www.w3.org/2000/svg">
<circle opacity="0.95" cx="17" cy="17" r="17" fill="#1E88E5"/>
<path d="M10.1786 17.2279L15.3714 21.8643C15.4736 21.955 15.6007 22 15.7279 22C15.875 22 16.0207 21.94 16.1271 21.8221L24.1486 12.8929C24.2407 12.7907 24.2857 12.6636 24.2857 12.5357C24.2857 12.2364 24.0443 12 23.7507 12C23.6036 12 23.4571 12.06 23.3514 12.1779L15.6864 20.71L10.8929 16.4286C10.79 16.3379 10.6629 16.2929 10.5357 16.2929C10.2379 16.2929 10 16.5329 10 16.8279C10 16.975 10.06 17.1221 10.1786 17.2279Z" fill="white"/>
</svg>
