<svg width="16" height="16" viewBox="0 0 16 16" fill="none" xmlns="http://www.w3.org/2000/svg">
<path d="M4.5228 11.4747L4.77114 11.4217C5.00408 11.3719 5.3255 11.303 5.67942 11.2264C6.38866 11.0729 7.22373 10.8897 7.7403 10.7683L4.5228 11.4747ZM4.5228 11.4747L5.25097 8.23038C5.31125 7.97281 5.40732 7.78254 5.56853 7.63863L5.57912 7.62918L5.58916 7.61914L12.3406 0.86639C12.3407 0.866371 12.3407 0.866352 12.3407 0.866333C12.5852 0.62193 12.9043 0.5 13.2249 0.5C13.5475 0.5 13.8661 0.621894 14.1122 0.866951C14.1122 0.86699 14.1123 0.867028 14.1123 0.867067L15.137 1.89146C15.137 1.89152 15.1371 1.89158 15.1371 1.89164C15.6236 2.37979 15.6245 3.16428 15.1182 3.65107L15.1181 3.651L15.1112 3.65793L8.32837 10.4392L8.32835 10.4392C8.16395 10.6036 7.9641 10.7156 7.74035 10.7682L4.5228 11.4747ZM14.7866 3.30189L14.7849 3.3036L8.00213 10.0848C7.9059 10.1811 7.78974 10.2489 7.65273 10.2807C7.65236 10.2808 7.65199 10.2809 7.65162 10.281L7.53922 9.79375L14.7866 3.30189ZM14.7866 3.30189C15.0784 3.00738 15.0757 2.53696 14.7796 2.24429L13.7551 1.21967C13.7551 1.21966 13.7551 1.21965 13.7551 1.21965C13.5739 1.03846 13.3607 1 13.2249 1C13.088 1 12.8732 1.03941 12.6932 1.2245L5.94748 7.96873C5.83055 8.0799 5.76754 8.21769 5.74115 8.34238L14.7866 3.30189ZM6.7515 2.5H6.75154C6.89055 2.5 7.00171 2.61151 7.00171 2.75C7.00171 2.88781 6.88966 3 6.75154 3H2.25051C1.56139 3 1.00034 3.56018 1.00034 4.25V13.75C1.00034 14.4398 1.56139 15 2.25051 15H11.7527C12.4418 15 13.0029 14.4398 13.0029 13.75V9.75C13.0029 9.61219 13.1149 9.5 13.253 9.5C13.3901 9.5 13.5011 9.6103 13.5032 9.74614L13.4189 13.7395L13.4188 13.7395V13.75C13.4188 14.7226 12.6529 15.5 11.6964 15.5H2.22238C1.29401 15.5 0.5 14.7225 0.5 13.7219V4.22188C0.5 3.28531 1.28595 2.49969 2.22238 2.49969L6.7515 2.5Z" stroke="#212121"/>
</svg>
