<svg width="18" height="16" viewBox="0 0 18 16" fill="none" xmlns="http://www.w3.org/2000/svg">
<path d="M4.65245 0C2.29511 0 0 1.62578 0 4.60178C0 7.91289 3.86222 11.4702 8.26933 15.7484C8.44178 15.9164 8.66578 16 8.88889 16C9.112 16 9.336 15.9164 9.50845 15.7484C13.9324 11.4542 17.7778 7.91378 17.7778 4.60178C17.7778 1.62133 15.4844 0.00800006 13.1298 0.00800006C11.4978 0.00800006 9.88889 0.777778 8.88889 2.27822C7.88445 0.770667 6.28 0 4.65245 0ZM4.65245 1.33333C6.42133 1.33422 7.49867 2.536 8.34578 3.73333C8.47022 3.90933 8.67289 4.01422 8.88889 4.01511C9.10489 4.01511 9.30756 3.91111 9.43289 3.736C10.2818 2.54578 11.3796 1.34133 13.1298 1.34133C14.7262 1.34133 16.4444 2.36178 16.4444 4.60178C16.4444 6.976 13.8836 9.64445 8.88889 14.4924C4.04089 9.79467 1.33333 7.03556 1.33333 4.60178C1.33333 3.60178 1.67911 2.76267 2.33244 2.17778C2.93067 1.64089 3.77689 1.33333 4.65245 1.33333Z" fill="#E0E0E0"/>
</svg>
