<svg width="21" height="20" viewBox="0 0 21 20" fill="none" xmlns="http://www.w3.org/2000/svg">
<mask id="path-1-outside-1_1_1442" maskUnits="userSpaceOnUse" x="0" y="0" width="21" height="20" fill="black">
<rect fill="white" width="21" height="20"/>
<path d="M17.6847 9.97323C17.2055 9.48524 17.0986 8.74384 17.4205 8.14023C17.6504 7.71005 17.6666 7.19853 17.4636 6.75423C17.2612 6.3106 16.8633 5.98661 16.3874 5.87907C15.7213 5.72783 15.23 5.16187 15.1755 4.48029C15.1359 3.99432 14.8724 3.55405 14.4617 3.29056C14.0523 3.0264 13.5428 2.96926 13.0837 3.13663C12.4411 3.36987 11.7219 3.15814 11.3079 2.61503C11.0121 2.22786 10.5524 2 10.0644 2C9.57704 2 9.11728 2.22786 8.82153 2.61503C8.40949 3.15881 7.69027 3.37055 7.04768 3.1373C6.58927 2.97061 6.07976 3.02774 5.66974 3.29123C5.25972 3.55472 4.99556 3.99499 4.95657 4.48096C4.90146 5.16254 4.41078 5.72918 3.74466 5.87974C3.26877 5.98729 2.87084 6.31127 2.66852 6.7549C2.4662 7.19853 2.48233 7.71072 2.71221 8.14023C3.03418 8.74317 2.92731 9.48524 2.44872 9.97323C2.10659 10.3207 1.94662 10.8081 2.01585 11.2907C2.08508 11.7733 2.37613 12.1961 2.80228 12.4334C3.39917 12.7661 3.71105 13.4483 3.57124 14.1171C3.47243 14.5944 3.60082 15.0904 3.9201 15.4588C4.24005 15.8278 4.71325 16.0261 5.19855 15.9952C5.88147 15.9528 6.51129 16.3581 6.75596 16.996C6.93005 17.4517 7.30714 17.7993 7.77564 17.9364C8.24279 18.0735 8.74826 17.9848 9.14081 17.6964C9.69131 17.2911 10.4421 17.2911 10.992 17.6964C11.3845 17.9854 11.89 18.0742 12.3571 17.9364C12.8256 17.7993 13.2027 17.4511 13.3775 16.996C13.6215 16.3581 14.252 15.9521 14.9342 15.9952C15.4209 16.0261 15.8934 15.8278 16.2127 15.4588C16.5319 15.0904 16.661 14.5944 16.5615 14.1171C16.4224 13.4483 16.7336 12.7661 17.3311 12.4334C17.7566 12.1954 18.047 11.7733 18.1169 11.2907C18.1868 10.8081 18.0262 10.3207 17.6847 9.97323ZM9.22617 13.6231L6.20143 10.6898L7.44964 9.44155L9.22617 11.126L13.0192 7.23819L14.2674 8.4864L9.22617 13.6231Z"/>
</mask>
<path d="M17.6847 9.97323C17.2055 9.48524 17.0986 8.74384 17.4205 8.14023C17.6504 7.71005 17.6666 7.19853 17.4636 6.75423C17.2612 6.3106 16.8633 5.98661 16.3874 5.87907C15.7213 5.72783 15.23 5.16187 15.1755 4.48029C15.1359 3.99432 14.8724 3.55405 14.4617 3.29056C14.0523 3.0264 13.5428 2.96926 13.0837 3.13663C12.4411 3.36987 11.7219 3.15814 11.3079 2.61503C11.0121 2.22786 10.5524 2 10.0644 2C9.57704 2 9.11728 2.22786 8.82153 2.61503C8.40949 3.15881 7.69027 3.37055 7.04768 3.1373C6.58927 2.97061 6.07976 3.02774 5.66974 3.29123C5.25972 3.55472 4.99556 3.99499 4.95657 4.48096C4.90146 5.16254 4.41078 5.72918 3.74466 5.87974C3.26877 5.98729 2.87084 6.31127 2.66852 6.7549C2.4662 7.19853 2.48233 7.71072 2.71221 8.14023C3.03418 8.74317 2.92731 9.48524 2.44872 9.97323C2.10659 10.3207 1.94662 10.8081 2.01585 11.2907C2.08508 11.7733 2.37613 12.1961 2.80228 12.4334C3.39917 12.7661 3.71105 13.4483 3.57124 14.1171C3.47243 14.5944 3.60082 15.0904 3.9201 15.4588C4.24005 15.8278 4.71325 16.0261 5.19855 15.9952C5.88147 15.9528 6.51129 16.3581 6.75596 16.996C6.93005 17.4517 7.30714 17.7993 7.77564 17.9364C8.24279 18.0735 8.74826 17.9848 9.14081 17.6964C9.69131 17.2911 10.4421 17.2911 10.992 17.6964C11.3845 17.9854 11.89 18.0742 12.3571 17.9364C12.8256 17.7993 13.2027 17.4511 13.3775 16.996C13.6215 16.3581 14.252 15.9521 14.9342 15.9952C15.4209 16.0261 15.8934 15.8278 16.2127 15.4588C16.5319 15.0904 16.661 14.5944 16.5615 14.1171C16.4224 13.4483 16.7336 12.7661 17.3311 12.4334C17.7566 12.1954 18.047 11.7733 18.1169 11.2907C18.1868 10.8081 18.0262 10.3207 17.6847 9.97323ZM9.22617 13.6231L6.20143 10.6898L7.44964 9.44155L9.22617 11.126L13.0192 7.23819L14.2674 8.4864L9.22617 13.6231Z" stroke="#E0E0E0" stroke-width="4" mask="url(#path-1-outside-1_1_1442)"/>
</svg>
