<svg width="34" height="34" viewBox="0 0 34 34" fill="none" xmlns="http://www.w3.org/2000/svg">
<circle cx="17" cy="17" r="17" fill="#CDCDCD"/>
<path d="M16.8291 16.8293H10.738C10.3902 16.8293 10.1079 17.1116 10.1079 17.4594C10.1079 17.8072 10.3902 18.0895 10.738 18.0895H16.8291V24.1806C16.8291 24.5284 17.1114 24.8107 17.4593 24.8107C17.8071 24.8107 18.0894 24.5284 18.0894 24.1806V18.0895H24.1805C24.5283 18.0895 24.8106 17.8072 24.8106 17.4594C24.8106 17.1116 24.5283 16.8293 24.1805 16.8293H18.0894V10.7381C18.0894 10.3903 17.8071 10.108 17.4593 10.108C17.1114 10.108 16.8291 10.3903 16.8291 10.7381V16.8293Z" fill="white"/>
</svg>
