<svg width="16" height="20" viewBox="0 0 16 20" fill="none" xmlns="http://www.w3.org/2000/svg">
<path fill-rule="evenodd" clip-rule="evenodd" d="M8.0232 19.2C9.2864 19.2 10.4 18.0784 10.4 16.8H5.6C5.6 18.0784 6.76 19.2 8.0232 19.2ZM9.6768 1.7C9.676 2.3 9.9944 2.8568 10.5096 3.156C12.3332 4.21344 12.7551 6.47146 13.1629 8.65411C13.5906 10.9431 14.0028 13.1493 16 13.8008V15.2H0V13.8008C1.99746 13.1492 2.40972 10.9428 2.83747 8.65354C3.24523 6.47125 3.66706 4.21368 5.4896 3.156C6.0056 2.8568 6.3232 2.3008 6.3224 1.7V1.6976C6.3224 0.76 7.0736 0 8 0C8.9264 0 9.6776 0.76 9.6768 1.6976V1.7ZM4.4104 8.948C4.1232 10.4872 3.7904 12.2664 2.8392 13.6H13.1616C12.2104 12.2664 11.8776 10.4872 11.5904 8.948L11.5901 8.94665C11.2326 7.03515 10.8949 5.22944 9.7072 4.5408C8.6584 3.9328 7.3976 3.9 6.2936 4.5408C5.10588 5.22944 4.76816 7.03515 4.41065 8.94665L4.4104 8.948Z" fill="#212121"/>
</svg>
