<svg width="44" height="36" viewBox="0 0 44 36" fill="none" xmlns="http://www.w3.org/2000/svg">
<path d="M42.5556 31.2222C42.5556 32.2242 42.1575 33.185 41.4491 33.8935C40.7406 34.602 39.7797 35 38.7778 35H4.77778C3.77585 35 2.81496 34.602 2.10649 33.8935C1.39801 33.185 1 32.2242 1 31.2222V10.4444C1 9.44252 1.39801 8.48162 2.10649 7.77315C2.81496 7.06468 3.77585 6.66667 4.77778 6.66667H12.3333L16.1111 1H27.4444L31.2222 6.66667H38.7778C39.7797 6.66667 40.7406 7.06468 41.4491 7.77315C42.1575 8.48162 42.5556 9.44252 42.5556 10.4444V31.2222Z" stroke="#BDBDBD" stroke-width="2" stroke-linecap="round" stroke-linejoin="round"/>
<path d="M21.7777 27.4445C25.9505 27.4445 29.3333 24.0617 29.3333 19.8889C29.3333 15.7161 25.9505 12.3333 21.7777 12.3333C17.6049 12.3333 14.2222 15.7161 14.2222 19.8889C14.2222 24.0617 17.6049 27.4445 21.7777 27.4445Z" stroke="#BDBDBD" stroke-width="2" stroke-linecap="round" stroke-linejoin="round"/>
</svg>
