<svg width="34" height="34" viewBox="0 0 34 34" fill="none" xmlns="http://www.w3.org/2000/svg">
<path d="M14.1667 21.25C14.1667 20.468 14.8013 19.8333 15.5848 19.8333C16.3682 19.8333 17 20.468 17 21.25C17 22.032 16.3682 22.6667 15.5848 22.6667C14.8013 22.6667 14.1667 22.032 14.1667 21.25ZM22.95 21.25L20.5417 24.9333L18.7 22.6667L14.1667 28.3333H28.3333L22.95 21.25ZM34 14.1667V34H8.5V14.1667H34ZM31.1667 17H11.3333V31.1667H31.1667V17ZM22.0122 3.70458L25.1912 11.3333H28.2611L23.5379 0L0 9.80758L5.66667 23.4968V16.0381L3.706 11.3333L22.0122 3.70458Z" fill="#E0E0E0"/>
</svg>
