<svg width="19" height="19" viewBox="0 0 19 19" fill="none" xmlns="http://www.w3.org/2000/svg">
<path d="M9.49953 0C14.7429 0 19 4.25706 19 9.49953C19 14.7429 14.7429 19 9.49953 19C4.25706 19 0 14.7429 0 9.49953C0 4.25706 4.25706 0 9.49953 0ZM9.49953 8.48847L6.91393 5.90193C6.77519 5.76319 6.5918 5.69382 6.40935 5.69382C6.02546 5.69382 5.69667 6.0017 5.69667 6.40555C5.69667 6.58895 5.76604 6.77044 5.90478 6.91013L8.49132 9.49667L5.89908 12.0889C5.75939 12.2286 5.69002 12.412 5.69002 12.5935C5.69002 12.9993 6.02261 13.3062 6.40365 13.3062C6.5861 13.3062 6.76854 13.2368 6.90728 13.0981L9.49953 10.5058L12.0927 13.0981C12.2315 13.2368 12.4139 13.3062 12.5963 13.3062C12.9774 13.3062 13.309 12.9993 13.309 12.5935C13.309 12.412 13.2397 12.2286 13.1 12.0889L10.5087 9.49667L13.0905 6.91488C13.2292 6.77519 13.2986 6.5937 13.2986 6.4103C13.2986 6.00645 12.9698 5.69763 12.5859 5.69763C12.4035 5.69763 12.2201 5.76699 12.0813 5.90668L9.49953 8.48847Z" fill="#212121"/>
</svg>
