<svg width="65" height="13" viewBox="0 0 65 13" fill="none" xmlns="http://www.w3.org/2000/svg">
<path d="M26.352 9.116V6.188H24.756V5.192H26.352V4.076H24.756V3.08H26.352V1.088H27.588V9.116H26.352ZM21.072 2.924V6.584C21.528 6.572 21.984 6.56 22.452 6.536V2.924H21.072ZM24.864 6.344L24.936 7.256C22.896 7.592 20.496 7.628 18.756 7.628L18.612 6.608C19.008 6.608 19.44 6.608 19.884 6.608V2.924H18.9V1.916H24.612V2.924H23.64V6.452C24.06 6.428 24.48 6.38 24.864 6.344ZM21.792 10.712H27.864V11.72H20.556V8.48H21.792V10.712ZM33.6471 3.188V4.22C33.6471 6.02 34.7631 7.892 36.4551 8.612L35.7711 9.584C34.5111 9.032 33.5391 7.856 33.0351 6.452C32.5551 7.964 31.5831 9.248 30.3111 9.86L29.6031 8.876C31.2831 8.096 32.3991 6.08 32.3991 4.22V3.188H29.9871V2.168H36.0591V3.188H33.6471ZM37.3191 1.088H38.5671V11.924H37.3191V1.088ZM44.0334 1.736H48.9534C48.9534 4.544 47.0934 6.488 43.9614 7.376L43.4574 6.392C45.9414 5.72 47.4054 4.412 47.6214 2.744H44.0334V1.736ZM46.5174 8.648V10.796H51.1494V8.648H46.5174ZM45.3054 11.792V7.664H52.3614V11.792H45.3054ZM51.1254 1.076H52.3614V7.22H51.1254V4.796H48.9774V3.776H51.1254V1.076ZM59.8485 6.092L59.1885 7.028C58.2285 6.632 57.5565 5.9 57.1605 5.024C56.7645 6.02 56.0565 6.86 55.0245 7.316L54.3645 6.368C55.8165 5.708 56.5485 4.328 56.5485 3.092V1.712H57.7485V3.092C57.7485 4.304 58.4445 5.528 59.8485 6.092ZM56.2485 9.188V8.192H63.5925V11.936H62.3565V9.188H56.2485ZM62.4165 1.088H63.5925V7.652H62.4165V4.832H61.2765V7.592H60.1125V1.268H61.2765V3.824H62.4165V1.088Z" fill="#BDBDBD"/>
<path d="M9.0805 9.77015C8.11915 10.5749 6.8809 11.0604 5.53085 11.0604C2.4778 11.0604 0 8.5826 0 5.5302C0 2.4778 2.4778 0 5.53085 0C8.5826 0 11.061 2.4778 11.061 5.5302C11.061 6.8809 10.5755 8.1198 9.7708 9.07985L12.8576 12.1673C12.9525 12.2622 13 12.387 13 12.5125C13 12.894 12.6509 13 12.5125 13C12.3877 13 12.2629 12.9525 12.1673 12.857L9.0805 9.77015ZM5.53085 0.97565C3.01665 0.97565 0.9763 3.01665 0.9763 5.5302C0.9763 8.04375 3.01665 10.0847 5.53085 10.0847C8.04375 10.0847 10.0854 8.04375 10.0854 5.5302C10.0854 3.01665 8.04375 0.97565 5.53085 0.97565Z" fill="#BDBDBD"/>
</svg>
