<svg width="19" height="19" viewBox="0 0 19 19" fill="none" xmlns="http://www.w3.org/2000/svg">
<path d="M19 11.2314V7.76862C17.2995 7.16221 16.8419 7.13371 16.6036 6.55817C16.3638 5.98104 16.6693 5.63271 17.442 4.00663L14.9934 1.558C13.3895 2.32038 13.0237 2.63783 12.441 2.39637C11.8655 2.15729 11.833 1.69258 11.2322 0H7.76862C7.16379 1.69733 7.13529 2.15729 6.55817 2.39637C5.96283 2.64417 5.60579 2.31721 4.00663 1.558L1.558 4.00663C2.33146 5.6335 2.63625 5.98025 2.39637 6.55896C2.15729 7.1345 1.69892 7.16379 0 7.76862V11.2322C1.69337 11.8338 2.15729 11.8655 2.39637 12.4418C2.63704 13.0229 2.33225 13.3657 1.558 14.9934L4.00663 17.442C5.58917 16.6899 5.96204 16.355 6.55817 16.6036C7.1345 16.8427 7.163 17.3003 7.76862 19H11.2314C11.8315 17.313 11.8639 16.8443 12.4482 16.6005C13.038 16.3566 13.3871 16.6788 14.9934 17.4412L17.442 14.9926C16.6701 13.3697 16.3638 13.0198 16.6036 12.441C16.8411 11.8663 17.3003 11.837 19 11.2314ZM15.1406 11.8362C14.6838 12.9398 15.0868 13.7821 15.527 14.6688L14.6688 15.527C13.8035 15.0971 12.958 14.6751 11.8402 15.139C10.735 15.599 10.4231 16.4793 10.108 17.4167H8.89358C8.5785 16.4785 8.26737 15.5982 7.16537 15.1406C6.042 14.6751 5.18067 15.105 4.332 15.527L3.47463 14.6688C3.91558 13.7837 4.31854 12.943 3.86017 11.8346C3.40179 10.7334 2.52146 10.4223 1.58333 10.1072V8.89358C2.52146 8.5785 3.40179 8.26737 3.85938 7.16458C4.31696 6.061 3.91321 5.21788 3.47304 4.33121L4.33121 3.47304C5.18779 3.89896 6.04279 4.32567 7.16537 3.85938C8.26737 3.40258 8.5785 2.52146 8.89358 1.58333H10.108C10.4231 2.52146 10.735 3.40179 11.837 3.85938C12.9604 4.32487 13.8209 3.895 14.6704 3.47304L15.5285 4.33121C15.0884 5.21867 14.6854 6.06258 15.1422 7.16537C15.599 8.26658 16.4793 8.57771 17.4183 8.89358V10.108C16.4778 10.4231 15.5958 10.7342 15.1406 11.8362ZM9.5 7.125C10.8094 7.125 11.875 8.19058 11.875 9.5C11.875 10.8094 10.8094 11.875 9.5 11.875C8.19058 11.875 7.125 10.8094 7.125 9.5C7.125 8.19058 8.19058 7.125 9.5 7.125ZM9.5 5.54167C7.31342 5.54167 5.54167 7.31342 5.54167 9.5C5.54167 11.6866 7.31342 13.4583 9.5 13.4583C11.6866 13.4583 13.4583 11.6866 13.4583 9.5C13.4583 7.31342 11.6866 5.54167 9.5 5.54167Z" fill="#212121"/>
</svg>
